<svg xmlns="http://www.w3.org/2000/svg" width="1200" height="800" viewBox="0 0 1200 800" role="img" aria-labelledby="title desc"><title id="title">Fatty-acid metabolism</title><desc id="desc">Cytosolic synthesis, triglyceride storage and mitochondrial oxidation: two modelling scales in mFAOD research.</desc><defs><marker id="a163540" markerWidth="13" markerHeight="13" refX="10" refY="6.5" orient="auto" markerUnits="userSpaceOnUse"><path d="M2 2L10 6.5L2 11" fill="none" stroke="#163540" stroke-width="2.2" stroke-linejoin="round"/></marker><marker id="a52666D" markerWidth="13" markerHeight="13" refX="10" refY="6.5" orient="auto" markerUnits="userSpaceOnUse"><path d="M2 2L10 6.5L2 11" fill="none" stroke="#52666D" stroke-width="2.2" stroke-linejoin="round"/></marker><marker id="a237653" markerWidth="13" markerHeight="13" refX="10" refY="6.5" orient="auto" markerUnits="userSpaceOnUse"><path d="M2 2L10 6.5L2 11" fill="none" stroke="#237653" stroke-width="2.2" stroke-linejoin="round"/></marker><marker id="a256890" markerWidth="13" markerHeight="13" refX="10" refY="6.5" orient="auto" markerUnits="userSpaceOnUse"><path d="M2 2L10 6.5L2 11" fill="none" stroke="#256890" stroke-width="2.2" stroke-linejoin="round"/></marker><marker id="aA96816" markerWidth="13" markerHeight="13" refX="10" refY="6.5" orient="auto" markerUnits="userSpaceOnUse"><path d="M2 2L10 6.5L2 11" fill="none" stroke="#A96816" stroke-width="2.2" stroke-linejoin="round"/></marker><marker id="aB34F43" markerWidth="13" markerHeight="13" refX="10" refY="6.5" orient="auto" markerUnits="userSpaceOnUse"><path d="M2 2L10 6.5L2 11" fill="none" stroke="#B34F43" stroke-width="2.2" stroke-linejoin="round"/></marker></defs><path d="M0 0H1200V800H0Z" fill="#FFFFFF"/><g transform="translate(0 47) scale(1)"><path d="M39 98C109 40 282 46 410 100C489 184 459 363 396 428C265 477 91 411 46 302C21 243 17 164 39 98Z" fill="#F1F6EC" stroke="#C7DCC6" stroke-width="1.6" stroke-linecap="round" stroke-linejoin="round" opacity="1"/><text x="67" y="89" font-family="Arial, Helvetica, sans-serif" font-size="20" font-weight="700" fill="#237653" text-anchor="start" letter-spacing="2">CYTOSOL</text><text x="67" y="126" font-family="Arial, Helvetica, sans-serif" font-size="34" font-weight="700" fill="#237653" text-anchor="start" letter-spacing="0">Anabolism</text><ellipse cx="125" cy="243" rx="35" ry="35" fill="#F5E4C5" stroke="#A96816" stroke-width="2" transform="rotate(0 125 243)"/><ellipse cx="113" cy="237" rx="5" ry="5" fill="#A96816" stroke="none" stroke-width="2" transform="rotate(0 113 237)"/><ellipse cx="137" cy="250" rx="5" ry="5" fill="#A96816" stroke="none" stroke-width="2" transform="rotate(0 137 250)"/><path d="M118 240L132 247" fill="none" stroke="#A96816" stroke-width="2.5" stroke-linecap="round" stroke-linejoin="round" opacity="1"/><text x="125" y="315" font-family="Arial, Helvetica, sans-serif" font-size="27" font-weight="600" fill="#163540" text-anchor="middle" letter-spacing="0">Acetyl-CoA</text><path d="M169 221C210 180 242 169 276 169" fill="none" stroke="#237653" stroke-width="3.5" stroke-linecap="round" stroke-linejoin="round" opacity="1" marker-end="url(#a237653)"/><ellipse cx="315" cy="169" rx="30" ry="30" fill="#D9E8CB" stroke="#237653" stroke-width="2" transform="rotate(0 315 169)"/><ellipse cx="300" cy="175" rx="4" ry="4" fill="#237653" stroke="none" stroke-width="2" transform="rotate(0 300 175)"/><ellipse cx="315" cy="158" rx="4" ry="4" fill="#237653" stroke="none" stroke-width="2" transform="rotate(0 315 158)"/><ellipse cx="330" cy="175" rx="4" ry="4" fill="#237653" stroke="none" stroke-width="2" transform="rotate(0 330 175)"/><path d="M303 171L312 161M318 161L327 171" fill="none" stroke="#237653" stroke-width="2" stroke-linecap="round" stroke-linejoin="round" opacity="1"/><text x="366" y="178" font-family="Arial, Helvetica, sans-serif" font-size="24" font-weight="600" fill="#163540" text-anchor="start" letter-spacing="0">Malonyl-CoA</text><path d="M317 210V250" fill="none" stroke="#237653" stroke-width="3.2" stroke-linecap="round" stroke-linejoin="round" opacity="1" marker-end="url(#a237653)"/><path d="M259 265C274 246 300 249 318 262C332 237 369 243 385 268C418 267 438 297 424 321C437 350 414 376 386 372C366 400 332 390 320 374C290 391 259 374 260 353C233 337 237 291 259 265Z" fill="#BAD6AA" stroke="#237653" stroke-width="2" stroke-linecap="round" stroke-linejoin="round" opacity="1"/><path d="M265 280C290 263 316 281 320 300C335 277 374 262 390 289C408 306 391 332 372 332C357 358 331 357 316 337C282 356 254 331 265 306Z" fill="#D9E9CC" stroke="none" stroke-width="0" stroke-linecap="round" stroke-linejoin="round" opacity="1"/><ellipse cx="278" cy="308" rx="12" ry="12" fill="#FFFFFF" stroke="#237653" stroke-width="1.5" transform="rotate(0 278 308)"/><path d="M290 308H302" fill="none" stroke="#237653" stroke-width="2.5" stroke-linecap="round" stroke-linejoin="round" opacity="1"/><path d="M302 303L315 314L328 303L341 314L354 303L367 314L380 303" fill="none" stroke="#237653" stroke-width="2.7" stroke-linecap="round" stroke-linejoin="round" opacity="1"/><text x="329" y="366" font-family="Arial, Helvetica, sans-serif" font-size="24" font-weight="700" fill="#237653" text-anchor="middle" letter-spacing="0">Synthase</text><path d="M240 275C234 239 286 227 315 237" fill="none" stroke="#237653" stroke-width="2.2" stroke-linecap="round" stroke-linejoin="round" opacity="1" marker-end="url(#a237653)"/><path d="M399 379C380 412 322 409 294 396" fill="none" stroke="#237653" stroke-width="2.2" stroke-linecap="round" stroke-linejoin="round" opacity="1" marker-end="url(#a237653)"/><path d="M436 318C462 313 487 313 514 318" fill="none" stroke="#FFFFFF" stroke-width="12" stroke-linecap="round" stroke-linejoin="round" opacity="1"/><path d="M436 318C462 313 487 313 514 318" fill="none" stroke="#237653" stroke-width="7" stroke-linecap="round" stroke-linejoin="round" opacity="1"/><path d="M514.0 318.0L494.16319599573944 322.97103680297704L497.2587134188386 306.25524271824116Z" fill="#237653" stroke="#237653" stroke-width="0" stroke-linecap="round" stroke-linejoin="round" opacity="1"/><text x="547" y="242" font-family="Arial, Helvetica, sans-serif" font-size="18" font-weight="400" fill="#52666D" text-anchor="start" letter-spacing="0">C14:0</text><path d="M548.0 249L557.7 260L567.4 249L577.1 260L586.8 249L596.5 260L606.2 249L615.9 260L625.6 249L635.3 260L645.0 249L654.7 260L664.4 249" fill="none" stroke="#163540" stroke-width="2.7" stroke-linecap="round" stroke-linejoin="round" opacity="1"/><path d="M664.4 249l12 -6" fill="none" stroke="#163540" stroke-width="2.3" stroke-linecap="round" stroke-linejoin="round" opacity="1"/><text x="680.4" y="247" font-family="Arial, Helvetica, sans-serif" font-size="17" font-weight="600" fill="#B34F43" text-anchor="start" letter-spacing="0">COO⁻</text><text x="547" y="287" font-family="Arial, Helvetica, sans-serif" font-size="18" font-weight="400" fill="#52666D" text-anchor="start" letter-spacing="0">C16:0</text><path d="M548.0 294L557.7 305L567.4 294L577.1 305L586.8 294L596.5 305L606.2 294L615.9 305L625.6 294L635.3 305L645.0 294L654.7 305L664.4 294L674.1 305L683.8 294" fill="none" stroke="#163540" stroke-width="2.7" stroke-linecap="round" stroke-linejoin="round" opacity="1"/><path d="M683.8 294l12 -6" fill="none" stroke="#163540" stroke-width="2.3" stroke-linecap="round" stroke-linejoin="round" opacity="1"/><text x="699.8" y="292" font-family="Arial, Helvetica, sans-serif" font-size="17" font-weight="600" fill="#B34F43" text-anchor="start" letter-spacing="0">COO⁻</text><text x="547" y="332" font-family="Arial, Helvetica, sans-serif" font-size="18" font-weight="400" fill="#52666D" text-anchor="start" letter-spacing="0">C18:0</text><path d="M548.0 339L557.7 350L567.4 339L577.1 350L586.8 339L596.5 350L606.2 339L615.9 350L625.6 339L635.3 350L645.0 339L654.7 350L664.4 339L674.1 350L683.8 339L693.5 350L703.2 339" fill="none" stroke="#163540" stroke-width="2.7" stroke-linecap="round" stroke-linejoin="round" opacity="1"/><path d="M703.2 339l12 -6" fill="none" stroke="#163540" stroke-width="2.3" stroke-linecap="round" stroke-linejoin="round" opacity="1"/><text x="719.2" y="337" font-family="Arial, Helvetica, sans-serif" font-size="17" font-weight="600" fill="#B34F43" text-anchor="start" letter-spacing="0">COO⁻</text><text x="637" y="409" font-family="Arial, Helvetica, sans-serif" font-size="36" font-weight="700" fill="#163540" text-anchor="middle" letter-spacing="0">Fatty acids</text><ellipse cx="993" cy="166" rx="91" ry="91" fill="#F8E7C9" stroke="#A96816" stroke-width="2" transform="rotate(0 993 166)"/><ellipse cx="993" cy="166" rx="83" ry="83" fill="#F2D19C" stroke="none" stroke-width="2" transform="rotate(0 993 166)"/><ellipse cx="1081.0" cy="166.0" rx="2.1" ry="2.1" fill="#F9EDD7" stroke="#A96816" stroke-width="0.7" transform="rotate(0 1081.0 166.0)"/><ellipse cx="1080.0171127078113" cy="179.11571942350335" rx="2.1" ry="2.1" fill="#F9EDD7" stroke="#A96816" stroke-width="0.7" transform="rotate(0 1080.0171127078113 179.11571942350335)"/><ellipse cx="1077.0904069091803" cy="191.93845534815958" rx="2.1" ry="2.1" fill="#F9EDD7" stroke="#A96816" stroke-width="0.7" transform="rotate(0 1077.0904069091803 191.93845534815958)"/><ellipse cx="1072.285260375413" cy="204.1817690423451" rx="2.1" ry="2.1" fill="#F9EDD7" stroke="#A96816" stroke-width="0.7" transform="rotate(0 1072.285260375413 204.1817690423451)"/><ellipse cx="1065.7090121398076" cy="215.57216510959876" rx="2.1" ry="2.1" fill="#F9EDD7" stroke="#A96816" stroke-width="0.7" transform="rotate(0 1065.7090121398076 215.57216510959876)"/><ellipse cx="1057.5085647210246" cy="225.8552009238409" rx="2.1" ry="2.1" fill="#F9EDD7" stroke="#A96816" stroke-width="0.7" transform="rotate(0 1057.5085647210246 225.8552009238409)"/><ellipse cx="1047.8671025635686" cy="234.80117045718663" rx="2.1" ry="2.1" fill="#F9EDD7" stroke="#A96816" stroke-width="0.7" transform="rotate(0 1047.8671025635686 234.80117045718663)"/><ellipse cx="1037.0" cy="242.21023553303058" rx="2.1" ry="2.1" fill="#F9EDD7" stroke="#A96816" stroke-width="0.7" transform="rotate(0 1037.0 242.21023553303058)"/><ellipse cx="1025.1500101442427" cy="247.91688988068998" rx="2.1" ry="2.1" fill="#F9EDD7" stroke="#A96816" stroke-width="0.7" transform="rotate(0 1025.1500101442427 247.91688988068998)"/><ellipse cx="1012.5818421881556" cy="251.79365627200048" rx="2.1" ry="2.1" fill="#F9EDD7" stroke="#A96816" stroke-width="0.7" transform="rotate(0 1012.5818421881556 251.79365627200048)"/><ellipse cx="999.5762482356054" cy="253.75393415194384" rx="2.1" ry="2.1" fill="#F9EDD7" stroke="#A96816" stroke-width="0.7" transform="rotate(0 999.5762482356054 253.75393415194384)"/><ellipse cx="986.4237517643946" cy="253.75393415194384" rx="2.1" ry="2.1" fill="#F9EDD7" stroke="#A96816" stroke-width="0.7" transform="rotate(0 986.4237517643946 253.75393415194384)"/><ellipse cx="973.4181578118444" cy="251.79365627200048" rx="2.1" ry="2.1" fill="#F9EDD7" stroke="#A96816" stroke-width="0.7" transform="rotate(0 973.4181578118444 251.79365627200048)"/><ellipse cx="960.8499898557573" cy="247.91688988068998" rx="2.1" ry="2.1" fill="#F9EDD7" stroke="#A96816" stroke-width="0.7" transform="rotate(0 960.8499898557573 247.91688988068998)"/><ellipse cx="949.0" cy="242.2102355330306" rx="2.1" ry="2.1" fill="#F9EDD7" stroke="#A96816" stroke-width="0.7" transform="rotate(0 949.0 242.2102355330306)"/><ellipse cx="938.1328974364314" cy="234.80117045718663" rx="2.1" ry="2.1" fill="#F9EDD7" stroke="#A96816" stroke-width="0.7" transform="rotate(0 938.1328974364314 234.80117045718663)"/><ellipse cx="928.4914352789752" cy="225.8552009238409" rx="2.1" ry="2.1" fill="#F9EDD7" stroke="#A96816" stroke-width="0.7" transform="rotate(0 928.4914352789752 225.8552009238409)"/><ellipse cx="920.2909878601924" cy="215.57216510959873" rx="2.1" ry="2.1" fill="#F9EDD7" stroke="#A96816" stroke-width="0.7" transform="rotate(0 920.2909878601924 215.57216510959873)"/><ellipse cx="913.7147396245871" cy="204.18176904234514" rx="2.1" ry="2.1" fill="#F9EDD7" stroke="#A96816" stroke-width="0.7" transform="rotate(0 913.7147396245871 204.18176904234514)"/><ellipse cx="908.9095930908196" cy="191.9384553481596" rx="2.1" ry="2.1" fill="#F9EDD7" stroke="#A96816" stroke-width="0.7" transform="rotate(0 908.9095930908196 191.9384553481596)"/><ellipse cx="905.9828872921887" cy="179.11571942350338" rx="2.1" ry="2.1" fill="#F9EDD7" stroke="#A96816" stroke-width="0.7" transform="rotate(0 905.9828872921887 179.11571942350338)"/><ellipse cx="905.0" cy="166.0" rx="2.1" ry="2.1" fill="#F9EDD7" stroke="#A96816" stroke-width="0.7" transform="rotate(0 905.0 166.0)"/><ellipse cx="905.9828872921887" cy="152.88428057649668" rx="2.1" ry="2.1" fill="#F9EDD7" stroke="#A96816" stroke-width="0.7" transform="rotate(0 905.9828872921887 152.88428057649668)"/><ellipse cx="908.9095930908196" cy="140.06154465184045" rx="2.1" ry="2.1" fill="#F9EDD7" stroke="#A96816" stroke-width="0.7" transform="rotate(0 908.9095930908196 140.06154465184045)"/><ellipse cx="913.7147396245871" cy="127.81823095765489" rx="2.1" ry="2.1" fill="#F9EDD7" stroke="#A96816" stroke-width="0.7" transform="rotate(0 913.7147396245871 127.81823095765489)"/><ellipse cx="920.2909878601924" cy="116.42783489040126" rx="2.1" ry="2.1" fill="#F9EDD7" stroke="#A96816" stroke-width="0.7" transform="rotate(0 920.2909878601924 116.42783489040126)"/><ellipse cx="928.4914352789752" cy="106.14479907615909" rx="2.1" ry="2.1" fill="#F9EDD7" stroke="#A96816" stroke-width="0.7" transform="rotate(0 928.4914352789752 106.14479907615909)"/><ellipse cx="938.1328974364314" cy="97.19882954281339" rx="2.1" ry="2.1" fill="#F9EDD7" stroke="#A96816" stroke-width="0.7" transform="rotate(0 938.1328974364314 97.19882954281339)"/><ellipse cx="949.0" cy="89.78976446696942" rx="2.1" ry="2.1" fill="#F9EDD7" stroke="#A96816" stroke-width="0.7" transform="rotate(0 949.0 89.78976446696942)"/><ellipse cx="960.8499898557573" cy="84.08311011931002" rx="2.1" ry="2.1" fill="#F9EDD7" stroke="#A96816" stroke-width="0.7" transform="rotate(0 960.8499898557573 84.08311011931002)"/><ellipse cx="973.4181578118444" cy="80.20634372799952" rx="2.1" ry="2.1" fill="#F9EDD7" stroke="#A96816" stroke-width="0.7" transform="rotate(0 973.4181578118444 80.20634372799952)"/><ellipse cx="986.4237517643946" cy="78.24606584805615" rx="2.1" ry="2.1" fill="#F9EDD7" stroke="#A96816" stroke-width="0.7" transform="rotate(0 986.4237517643946 78.24606584805615)"/><ellipse cx="999.5762482356054" cy="78.24606584805615" rx="2.1" ry="2.1" fill="#F9EDD7" stroke="#A96816" stroke-width="0.7" transform="rotate(0 999.5762482356054 78.24606584805615)"/><ellipse cx="1012.5818421881556" cy="80.20634372799952" rx="2.1" ry="2.1" fill="#F9EDD7" stroke="#A96816" stroke-width="0.7" transform="rotate(0 1012.5818421881556 80.20634372799952)"/><ellipse cx="1025.1500101442427" cy="84.08311011931004" rx="2.1" ry="2.1" fill="#F9EDD7" stroke="#A96816" stroke-width="0.7" transform="rotate(0 1025.1500101442427 84.08311011931004)"/><ellipse cx="1037.0" cy="89.78976446696936" rx="2.1" ry="2.1" fill="#F9EDD7" stroke="#A96816" stroke-width="0.7" transform="rotate(0 1037.0 89.78976446696936)"/><ellipse cx="1047.8671025635686" cy="97.19882954281337" rx="2.1" ry="2.1" fill="#F9EDD7" stroke="#A96816" stroke-width="0.7" transform="rotate(0 1047.8671025635686 97.19882954281337)"/><ellipse cx="1057.5085647210246" cy="106.14479907615912" rx="2.1" ry="2.1" fill="#F9EDD7" stroke="#A96816" stroke-width="0.7" transform="rotate(0 1057.5085647210246 106.14479907615912)"/><ellipse cx="1065.7090121398076" cy="116.4278348904012" rx="2.1" ry="2.1" fill="#F9EDD7" stroke="#A96816" stroke-width="0.7" transform="rotate(0 1065.7090121398076 116.4278348904012)"/><ellipse cx="1072.285260375413" cy="127.81823095765486" rx="2.1" ry="2.1" fill="#F9EDD7" stroke="#A96816" stroke-width="0.7" transform="rotate(0 1072.285260375413 127.81823095765486)"/><ellipse cx="1077.0904069091803" cy="140.0615446518404" rx="2.1" ry="2.1" fill="#F9EDD7" stroke="#A96816" stroke-width="0.7" transform="rotate(0 1077.0904069091803 140.0615446518404)"/><ellipse cx="1080.0171127078113" cy="152.88428057649656" rx="2.1" ry="2.1" fill="#F9EDD7" stroke="#A96816" stroke-width="0.7" transform="rotate(0 1080.0171127078113 152.88428057649656)"/><g transform="translate(953 118) scale(0.67)"><path d="M0 -20V24" fill="none" stroke="#A96816" stroke-width="3" stroke-linecap="round" stroke-linejoin="round" opacity="1"/><path d="M0 -16H12" fill="none" stroke="#A96816" stroke-width="2" stroke-linecap="round" stroke-linejoin="round" opacity="1"/><path d="M12 -16L22 -5L32 -16L42 -5L52 -16L62 -5" fill="none" stroke="#A96816" stroke-width="2.7" stroke-linecap="round" stroke-linejoin="round" opacity="1"/><path d="M0 4H12" fill="none" stroke="#A96816" stroke-width="2" stroke-linecap="round" stroke-linejoin="round" opacity="1"/><path d="M12 4L22 15L32 4L42 15L52 4L62 15" fill="none" stroke="#A96816" stroke-width="2.7" stroke-linecap="round" stroke-linejoin="round" opacity="1"/><path d="M0 24H12" fill="none" stroke="#A96816" stroke-width="2" stroke-linecap="round" stroke-linejoin="round" opacity="1"/><path d="M12 24L22 35L32 24L42 35L52 24L62 35" fill="none" stroke="#A96816" stroke-width="2.7" stroke-linecap="round" stroke-linejoin="round" opacity="1"/></g><g transform="translate(1006 170) scale(0.67)"><path d="M0 -20V24" fill="none" stroke="#A96816" stroke-width="3" stroke-linecap="round" stroke-linejoin="round" opacity="1"/><path d="M0 -16H12" fill="none" stroke="#A96816" stroke-width="2" stroke-linecap="round" stroke-linejoin="round" opacity="1"/><path d="M12 -16L22 -5L32 -16L42 -5L52 -16L62 -5" fill="none" stroke="#A96816" stroke-width="2.7" stroke-linecap="round" stroke-linejoin="round" opacity="1"/><path d="M0 4H12" fill="none" stroke="#A96816" stroke-width="2" stroke-linecap="round" stroke-linejoin="round" opacity="1"/><path d="M12 4L22 15L32 4L42 15L52 4L62 15" fill="none" stroke="#A96816" stroke-width="2.7" stroke-linecap="round" stroke-linejoin="round" opacity="1"/><path d="M0 24H12" fill="none" stroke="#A96816" stroke-width="2" stroke-linecap="round" stroke-linejoin="round" opacity="1"/><path d="M12 24L22 35L32 24L42 35L52 24L62 35" fill="none" stroke="#A96816" stroke-width="2.7" stroke-linecap="round" stroke-linejoin="round" opacity="1"/></g><g transform="translate(954 208) scale(0.45)"><path d="M0 -20V24" fill="none" stroke="#A96816" stroke-width="3" stroke-linecap="round" stroke-linejoin="round" opacity="1"/><path d="M0 -16H12" fill="none" stroke="#A96816" stroke-width="2" stroke-linecap="round" stroke-linejoin="round" opacity="1"/><path d="M12 -16L22 -5L32 -16L42 -5L52 -16L62 -5" fill="none" stroke="#A96816" stroke-width="2.7" stroke-linecap="round" stroke-linejoin="round" opacity="1"/><path d="M0 4H12" fill="none" stroke="#A96816" stroke-width="2" stroke-linecap="round" stroke-linejoin="round" opacity="1"/><path d="M12 4L22 15L32 4L42 15L52 4L62 15" fill="none" stroke="#A96816" stroke-width="2.7" stroke-linecap="round" stroke-linejoin="round" opacity="1"/><path d="M0 24H12" fill="none" stroke="#A96816" stroke-width="2" stroke-linecap="round" stroke-linejoin="round" opacity="1"/><path d="M12 24L22 35L32 24L42 35L52 24L62 35" fill="none" stroke="#A96816" stroke-width="2.7" stroke-linecap="round" stroke-linejoin="round" opacity="1"/></g><text x="993" y="36" font-family="Arial, Helvetica, sans-serif" font-size="32" font-weight="700" fill="#A96816" text-anchor="middle" letter-spacing="0">Triglycerides</text><text x="993" y="66" font-family="Arial, Helvetica, sans-serif" font-size="18" font-weight="600" fill="#52666D" text-anchor="middle" letter-spacing="1">LIPID-DROPLET STORAGE</text><path d="M759 258C788 188 833 134 893 141" fill="none" stroke="#FFFFFF" stroke-width="11" stroke-linecap="round" stroke-linejoin="round" opacity="1"/><path d="M759 258C788 188 833 134 893 141" fill="none" stroke="#237653" stroke-width="6" stroke-linecap="round" stroke-linejoin="round" opacity="1"/><path d="M893.0 141.0L874.3928705277657 146.8834286605268L876.2469617207286 130.9912184351309Z" fill="#237653" stroke="#237653" stroke-width="0" stroke-linecap="round" stroke-linejoin="round" opacity="1"/><text x="753" y="138" font-family="Arial, Helvetica, sans-serif" font-size="25" font-weight="600" fill="#237653" text-anchor="start" letter-spacing="0">Esterify</text><path d="M900 223C861 304 824 358 779 378" fill="none" stroke="#FFFFFF" stroke-width="10.5" stroke-linecap="round" stroke-linejoin="round" opacity="1"/><path d="M900 223C861 304 824 358 779 378" fill="none" stroke="#A96816" stroke-width="5.5" stroke-linecap="round" stroke-linejoin="round" opacity="1"/><path d="M779.0 378.0L791.7527478340783 363.851151188863L798.0478940579067 378.015230192477Z" fill="#A96816" stroke="#A96816" stroke-width="0" stroke-linecap="round" stroke-linejoin="round" opacity="1"/><text x="928" y="298" font-family="Arial, Helvetica, sans-serif" font-size="25" font-weight="600" fill="#A96816" text-anchor="start" letter-spacing="0">Mobilise</text><path d="M707 428C754 445 783 440 812 418" fill="none" stroke="#FFFFFF" stroke-width="12" stroke-linecap="round" stroke-linejoin="round" opacity="1"/><path d="M707 428C754 445 783 440 812 418" fill="none" stroke="#256890" stroke-width="7" stroke-linecap="round" stroke-linejoin="round" opacity="1"/><path d="M812.0 418.0L802.3188274528964 436.01346435623105L792.0442572695345 422.4697127508903Z" fill="#256890" stroke="#256890" stroke-width="0" stroke-linecap="round" stroke-linejoin="round" opacity="1"/><path d="M847 373C899 344 1028 336 1091 362C1136 381 1145 434 1105 462C1050 502 908 515 845 487C799 467 802 404 847 373Z" fill="#ADCBDD" stroke="#256890" stroke-width="2.5" stroke-linecap="round" stroke-linejoin="round" opacity="1"/><path d="M853 386C909 360 1025 352 1084 374C1120 390 1129 429 1099 451C1048 487 914 500 852 476C816 461 820 406 853 386Z" fill="#E3EDF1" stroke="#FFFFFF" stroke-width="2" stroke-linecap="round" stroke-linejoin="round" opacity="1"/><path d="M839 443C848 415 856 396 868 395C881 394 872 449 887 450C904 451 904 384 922 381C941 378 926 445 946 447C962 450 959 374 978 374C998 374 980 436 1002 438C1023 440 1012 370 1031 375C1052 380 1037 428 1057 430C1074 430 1078 395 1091 398" fill="none" stroke="#256890" stroke-width="4.5" stroke-linecap="round" stroke-linejoin="round" opacity="1"/><text x="982" y="337" font-family="Arial, Helvetica, sans-serif" font-size="25" font-weight="600" fill="#256890" text-anchor="middle" letter-spacing="0">Mitochondrion</text><text x="982" y="538" font-family="Arial, Helvetica, sans-serif" font-size="31" font-weight="700" fill="#256890" text-anchor="middle" letter-spacing="0">β-oxidation</text><path d="M809 479C651 604 275 575 133 335" fill="none" stroke="#FFFFFF" stroke-width="10" stroke-linecap="round" stroke-linejoin="round" opacity="1"/><path d="M809 479C651 604 275 575 133 335" fill="none" stroke="#256890" stroke-width="5" stroke-linecap="round" stroke-linejoin="round" opacity="1"/><path d="M133.0 335.0L148.11141857841565 345.8118004304516L135.20180612414507 353.44998779922844Z" fill="#256890" stroke="#256890" stroke-width="0" stroke-linecap="round" stroke-linejoin="round" opacity="1"/><text x="434" y="491" font-family="Arial, Helvetica, sans-serif" font-size="34" font-weight="700" fill="#256890" text-anchor="start" letter-spacing="0">Catabolism</text><path d="M574 436C468 468 275 455 215 365C209 311 210 250 233 190" fill="none" stroke="#B34F43" stroke-width="2" stroke-linecap="round" stroke-linejoin="round" opacity="1" stroke-dasharray="7 8"/><path d="M223 190H243" fill="none" stroke="#B34F43" stroke-width="2.6" stroke-linecap="round" stroke-linejoin="round" opacity="1"/><path d="M1116 570L1161 522L1128 444" fill="none" stroke="#B34F43" stroke-width="2" stroke-linecap="round" stroke-linejoin="round" opacity="1"/><text x="1102" y="585" font-family="Arial, Helvetica, sans-serif" font-size="27" font-weight="700" fill="#B34F43" text-anchor="end" letter-spacing="0">mFAODs</text></g><path d="M48 681H1152" fill="none" stroke="#D4DFE1" stroke-width="1.5" stroke-linecap="round" stroke-linejoin="round" opacity="1"/><text x="48" y="731" font-family="Arial, Helvetica, sans-serif" font-size="32" font-weight="600" fill="#163540" text-anchor="start" letter-spacing="0">Network dynamics</text><text x="716" y="731" font-family="Arial, Helvetica, sans-serif" font-size="32" font-weight="600" fill="#163540" text-anchor="start" letter-spacing="0">Enzyme kinetics</text><text x="48" y="774" font-family="Arial, Helvetica, sans-serif" font-size="26" font-weight="400" fill="#52666D" text-anchor="start" letter-spacing="0">Synthesis · storage · oxidation</text><text x="716" y="774" font-family="Arial, Helvetica, sans-serif" font-size="26" font-weight="400" fill="#52666D" text-anchor="start" letter-spacing="0">Product time courses</text></svg>